<mxfile host="app.diagrams.net" modified="2023-09-24T20:28:41.969Z" agent="Mozilla/5.0 (Macintosh; Intel Mac OS X 10_15_7) AppleWebKit/537.36 (KHTML, like Gecko) Chrome/116.0.0.0 Safari/537.36" etag="zJrxd0_8-_PG-UlqNv6P" version="21.8.1" type="github">
  <diagram name="Page-1" id="xw_CyEnjOwTLRPRQ1C41">
    <mxGraphModel dx="880" dy="510" grid="1" gridSize="10" guides="1" tooltips="1" connect="1" arrows="1" fold="1" page="1" pageScale="1" pageWidth="850" pageHeight="1100" math="0" shadow="0">
      <root>
        <mxCell id="0" />
        <mxCell id="1" parent="0" />
        <mxCell id="05L7lByVbqe1XADEVWJl-3" value="" style="rounded=1;whiteSpace=wrap;html=1;dashed=1;" parent="1" vertex="1">
          <mxGeometry x="100" y="645" width="470" height="280" as="geometry" />
        </mxCell>
        <mxCell id="05L7lByVbqe1XADEVWJl-9" value="Trinium" style="rounded=0;whiteSpace=wrap;html=1;horizontal=1;verticalAlign=top;" parent="1" vertex="1">
          <mxGeometry x="640" y="710" width="200" height="130" as="geometry" />
        </mxCell>
        <mxCell id="05L7lByVbqe1XADEVWJl-8" value="DataBase" style="image;aspect=fixed;perimeter=ellipsePerimeter;html=1;align=center;shadow=0;dashed=0;spacingTop=3;image=img/lib/active_directory/databases.svg;" parent="1" vertex="1">
          <mxGeometry x="780" y="760.5" width="50" height="49" as="geometry" />
        </mxCell>
        <mxCell id="05L7lByVbqe1XADEVWJl-11" value="invoice.csv" style="html=1;verticalLabelPosition=bottom;align=center;labelBackgroundColor=#ffffff;verticalAlign=top;strokeWidth=2;strokeColor=#0080F0;shadow=0;dashed=0;shape=mxgraph.ios7.icons.document;" parent="1" vertex="1">
          <mxGeometry x="680" y="770" width="21" height="30" as="geometry" />
        </mxCell>
        <mxCell id="05L7lByVbqe1XADEVWJl-14" value="" style="endArrow=classic;html=1;rounded=0;exitX=0;exitY=0.5;exitDx=0;exitDy=0;" parent="1" source="05L7lByVbqe1XADEVWJl-8" target="05L7lByVbqe1XADEVWJl-11" edge="1">
          <mxGeometry width="50" height="50" relative="1" as="geometry">
            <mxPoint x="400" y="800" as="sourcePoint" />
            <mxPoint x="450" y="750" as="targetPoint" />
          </mxGeometry>
        </mxCell>
        <mxCell id="05L7lByVbqe1XADEVWJl-15" value="File Export" style="edgeLabel;html=1;align=center;verticalAlign=middle;resizable=0;points=[];" parent="05L7lByVbqe1XADEVWJl-14" vertex="1" connectable="0">
          <mxGeometry x="-0.038" y="2" relative="1" as="geometry">
            <mxPoint as="offset" />
          </mxGeometry>
        </mxCell>
        <mxCell id="8yKVx5VnJc1-cJYcOVwO-3" value="" style="verticalLabelPosition=bottom;html=1;verticalAlign=top;align=center;strokeColor=none;fillColor=#00BEF2;shape=mxgraph.azure.cloud;" vertex="1" parent="1">
          <mxGeometry x="100" y="630" width="50" height="32.5" as="geometry" />
        </mxCell>
        <mxCell id="8yKVx5VnJc1-cJYcOVwO-4" value="Wheelz Backend" style="rounded=0;whiteSpace=wrap;html=1;verticalAlign=top;" vertex="1" parent="1">
          <mxGeometry x="155" y="796" width="360" height="110" as="geometry" />
        </mxCell>
        <mxCell id="8yKVx5VnJc1-cJYcOVwO-5" value="Wheelz Frontend" style="rounded=0;whiteSpace=wrap;html=1;verticalAlign=top;" vertex="1" parent="1">
          <mxGeometry x="155" y="662.5" width="360" height="110" as="geometry" />
        </mxCell>
        <mxCell id="8yKVx5VnJc1-cJYcOVwO-7" value="DB" style="image;aspect=fixed;html=1;points=[];align=center;fontSize=12;image=img/lib/azure2/databases/Azure_Database_PostgreSQL_Server.svg;" vertex="1" parent="1">
          <mxGeometry x="424" y="819" width="48" height="64" as="geometry" />
        </mxCell>
        <mxCell id="8yKVx5VnJc1-cJYcOVwO-9" value="" style="whiteSpace=wrap;html=1;aspect=fixed;" vertex="1" parent="1">
          <mxGeometry x="230" y="822" width="61" height="61" as="geometry" />
        </mxCell>
        <mxCell id="8yKVx5VnJc1-cJYcOVwO-10" value="" style="whiteSpace=wrap;html=1;aspect=fixed;" vertex="1" parent="1">
          <mxGeometry x="230" y="687" width="61" height="61" as="geometry" />
        </mxCell>
        <mxCell id="8yKVx5VnJc1-cJYcOVwO-11" value="" style="image;aspect=fixed;perimeter=ellipsePerimeter;html=1;align=center;shadow=0;dashed=0;spacingTop=3;image=img/lib/active_directory/internet_cloud.svg;" vertex="1" parent="1">
          <mxGeometry x="20" y="759.25" width="50" height="31.5" as="geometry" />
        </mxCell>
      </root>
    </mxGraphModel>
  </diagram>
</mxfile>
